# xmcd CD database file
# Copyright (C) 1993-1998 Ti Kan
#
# Track frame offsets:
#	150
#	10055
#	20677
#	33700
#	47435
#	59775
#	68262
#	78622
#	90180
#	102442
#	115760
#	127495
#	137682
#	147337
#	158432
#
# Disc length: 2272 seconds
#
# Revision: 1
# Processed by: cddbd v1.4b41PL1 Copyright (c) Steve Scherf et al.
# Submitted via: CDValet v3.31 - Copyright (c) 1997 Greg Leichner
#
DISCID=c708de0f
DTITLE=Various Artist - American Rock 'N' Roll Classics (Vol. 3)
DYEAR=1900
DGENRE=
TTITLE0=Splish Splash
TTITLE1=Eddie, My Love
TTITLE2=Chain Gang
TTITLE3=It's Gonna Work Out Fine
TTITLE4=Bang Bang
TTITLE5=Great Balls Of Fire
TTITLE6=What Is Love?
TTITLE7=At My Front Door
TTITLE8=I Wanna Love Him So Bad
TTITLE9=Earth Angel
TTITLE10=Be-Bop-A-Lula
TTITLE11=Forty Days
TTITLE12=From A Jack To A King
TTITLE13=Green Tambourine
TTITLE14=Goodnite, Sweetheart, Goodnite
EXTD=
EXTT0=
EXTT1=
EXTT2=
EXTT3=
EXTT4=
EXTT5=
EXTT6=
EXTT7=
EXTT8=
EXTT9=
EXTT10=
EXTT11=
EXTT12=
EXTT13=
EXTT14=
PLAYORDER=
